<?xml version="1.0" standalone="no"?>
<!DOCTYPE svg PUBLIC "-//W3C//DTD SVG 20010904//EN"
 "http://www.w3.org/TR/2001/REC-SVG-20010904/DTD/svg10.dtd">
<svg version="1.0" xmlns="http://www.w3.org/2000/svg"
 width="96.000000pt" height="96.000000pt" viewBox="0 0 96.000000 96.000000"
 preserveAspectRatio="xMidYMid meet">

<g transform="translate(0.000000,96.000000) scale(0.100000,-0.100000)"
fill="#000000" stroke="none">
<path d="M410 864 c-55 -24 -99 -73 -115 -128 -21 -70 -19 -119 4 -140 19 -18
20 -17 23 35 l3 52 118 40 119 39 39 -38 c36 -35 39 -42 39 -93 l0 -54 21 19
c19 17 21 27 16 81 -6 76 -31 122 -81 148 -21 11 -42 28 -47 38 -13 22 -89 23
-139 1z"/>
<path d="M384 589 c-10 -17 13 -36 27 -22 12 12 4 33 -11 33 -5 0 -12 -5 -16
-11z"/>
<path d="M544 589 c-10 -17 13 -36 27 -22 12 12 4 33 -11 33 -5 0 -12 -5 -16
-11z"/>
<path d="M686 405 c-9 -44 -36 -60 -78 -46 -17 6 -32 10 -33 9 -36 -59 -44
-82 -35 -93 8 -9 6 -25 -6 -55 -17 -41 -18 -42 -26 -19 -5 13 -7 38 -4 56 6
38 -15 63 -38 44 -10 -8 -13 -23 -10 -44 3 -18 1 -43 -4 -56 -8 -22 -12 -16
-41 57 l-33 80 -43 -15 c-88 -29 -152 -107 -170 -206 l-7 -36 217 -3 c154 -2
223 0 239 9 32 17 63 -6 72 -52 6 -34 7 -35 55 -35 48 0 49 1 49 29 0 51 44
76 90 51 16 -9 23 -4 44 32 l26 43 -25 20 c-33 27 -32 63 1 90 l27 21 -27 42
c-26 42 -27 42 -55 28 -25 -13 -31 -13 -49 0 -12 8 -24 30 -28 49 -6 34 -7 35
-54 35 -47 0 -48 -1 -54 -35z m96 -142 c38 -34 11 -103 -40 -103 -54 0 -81 62
-45 102 20 22 61 23 85 1z m-292 -153 c0 -5 -4 -10 -10 -10 -5 0 -10 5 -10 10
0 6 5 10 10 10 6 0 10 -4 10 -10z"/>
</g>
</svg>
